<svg xmlns="http://www.w3.org/2000/svg" xmlns:svgjs="http://svgjs.com/svgjs" xmlns:xlink="http://www.w3.org/1999/xlink" width="398.5" height="398.5"><defs><path id="a" fill="#000" d="M307.2 24v25.6l-32 3.2c-36.8 4.8-97.6 30.4-120 51.2l-14.4 12.8L120 97.6c-40-38.4-62.4-22.4-27.2 17.6l24 25.6-12.8 14.4c-20.8 22.4-46.4 83.2-51.2 120l-3.2 32H24c-19.2 0-24 1.6-24 12.8 0 11.2 4.8 12.8 24 12.8h25.6l3.2 32c4.8 36.8 30.4 97.6 51.2 120l12.8 14.4L97.6 520c-38.4 38.4-17.6 60.8 20.8 24l20.8-19.2 33.6 22.4c35.2 24 86.4 41.6 116.8 41.6 16 0 17.6 1.6 17.6 25.6 0 20.8 1.6 25.6 12.8 25.6 11.2 0 12.8-4.8 12.8-25.6 0-24 1.6-25.6 17.6-25.6 30.4 0 81.6-17.6 116.8-41.6l33.6-22.4 20.8 19.2c38.4 36.8 59.2 14.4 20.8-24l-19.2-20.8 12.8-14.4c20.8-22.4 46.4-83.2 51.2-120l3.2-32H616c19.2 0 24-1.6 24-12.8 0-11.2-4.8-12.8-24-12.8h-25.6l-3.2-32c-4.8-36.8-30.4-97.6-51.2-120l-12.8-14.4 19.2-20.8C580.8 80 560 59.2 520 97.6l-20.8 19.2-14.4-12.8c-22.4-20.8-83.2-46.4-120-51.2l-32-3.2V24c0-19.2-1.6-24-12.8-24-11.2 0-12.8 4.8-12.8 24zm-64 148.8c89.6 3.2 96 137.6 0 140.8-94.4-3.2-92.8-137.6 0-140.8z"/></defs><svg xmlns="http://www.w3.org/2000/svg" width="398.5" height="398.5" xml:space="preserve"><path d="M257.4.3c-3.7-1.3-8.5 2.7-10.6 8.8l-87.7 257.4-18.9-6.5-7 20.7c-14.2 5-26.1 17.5-39.2 28.5-1.6 1.4-13.8 7.5-14.9 8.7 26.9-.2 60.5-13.2 60.5-13.2-24.8 20.7-49 21-68.2 15.2-27.4 2.2-67-6.5-47.1 16.1 25.8 29.4 52.3 42.7 76.5 46.5 29.4-4.7 49.8-29.7 49.8-29.7a46.3 46.3 0 0 1-33.8 31c40.7-.3 71.7-26 76.8-40.7a46.9 46.9 0 0 0-9.4-45.4l6.9-20.3-18.3-6.2 87.7-257.4c2-6.2.7-12.2-3-13.5zM19 327.5l82.4 14.4C64.7 372.4 19 327.5 19 327.5zM288.32 274.583l2.768.164.14 3.48c.283 4.01 2.66 10.747 4.765 13.302l1.291 1.639-2.209 2.125c-4.408 4.078-2.822 6.602 1.728 3.054l2.922-2.43 1.474 1.476c2.288 2.393 8.697 5.55 12.645 6.306l3.439.551-.165 2.768c-.123 2.076.019 2.605 1.23 2.677 1.21.072 1.414-.437 1.538-2.513l.164-2.767 3.48-.14c4.01-.283 10.747-2.66 13.302-4.765l1.64-1.291 2.124 2.209c3.905 4.398 6.46 2.293 2.729-2.095l-1.942-2.372 2.637-3.488c2.82-3.651 5.052-9.074 5.248-12.36.102-1.73.286-1.893 2.88-1.738 2.249.133 2.778-.009 2.85-1.22.072-1.21-.437-1.414-2.685-1.548-2.595-.154-2.758-.337-2.655-2.067.195-3.287-1.379-8.935-3.747-12.895l-2.206-3.776 2.21-2.125c4.224-3.915 1.936-6.308-2.462-2.403l-2.372 1.942-1.474-1.476c-2.288-2.393-8.697-5.55-12.644-6.306l-3.44-.552.165-2.767c.123-2.076-.019-2.605-1.23-2.677-1.21-.072-1.414.437-1.538 2.512l-.164 2.768-3.48.14c-4.01.283-10.747 2.66-13.302 4.765l-1.639 1.291-2.125-2.21c-4.078-4.408-6.46-2.292-2.566 2.279l1.942 2.372-1.476 1.474c-2.393 2.288-5.55 8.697-6.306 12.644l-.552 3.44-2.767-.165c-2.076-.123-2.605.019-2.677 1.23-.072 1.21.437 1.414 2.512 1.538zm15.676 7.874c.922-9.666 15.493-9.494 15.222.905-.952 10.185-15.472 9.148-15.222-.905z"/><use xlink:href="#a" transform="matrix(.0488 -.0967 .0967 .0488 298 378.9)"/><use xlink:href="#a" transform="rotate(36 -326.983 514.985) scale(.1083)"/></svg></svg>