<svg version="1.0" xmlns="http://www.w3.org/2000/svg" width="682.667" height="682.667" viewBox="0 0 512 512"><path d="M325.4 1c-5.3 2.1-6.2 4.3-21.9 50.5-2.6 7.7-10.3 30.4-17.2 50.5-6.8 20.1-14 41-15.8 46.5-1.9 5.5-8.4 24.6-14.5 42.5s-12.8 37.7-15 44c-2.1 6.3-10 29.5-17.5 51.5s-14.8 43.5-16.2 47.7c-1.5 4.3-2.9 7.8-3.2 7.8-.3 0-5.8-1.8-12.1-3.9-8.2-2.8-11.7-3.6-12.1-2.8-.4.7-2.4 6.5-4.5 13l-3.9 11.9-7 3.4c-9.2 4.4-22.5 14.5-37.3 28.2-4.2 3.8-17 12.2-18.7 12.2-.4 0-1.9 1-3.3 2.1l-2.7 2.2 9.4-.7c15.2-1.1 43.7-7.5 61.9-14 5.6-2 4.7-.7-3.6 4.7-9.6 6.3-24.1 13.2-27.2 13-.3 0-1.5.3-2.8.8-8 3.1-28.4 3.5-39.7.9-7-1.6-11.9-1.8-38-1.7-26.5.2-30.4.4-33.2 2-3.6 1.9-6 5.4-4.6 6.8.4.4 4.9 1.5 9.8 2.4 5 .8 10.2 1.7 11.5 2 1.3.3 4.2.7 6.5 1 2.2.3 4.7.8 5.5 1 .8.2 2.9.6 4.5.9 1.7.3 8.6 1.5 15.5 2.7 6.9 1.2 13.4 2.3 14.5 2.4 1.1.2 3.4.6 5 .9 1.7.3 8.9 1.6 16 2.7 18 3 17.8 2.9 11.9 6.7-11.4 7.3-21.6 10.2-34.4 9.7-8.2-.3-12.9-1.2-20.5-3.7-12.6-4.3-26.4-12-37.9-21.2-3.8-3.1-7.1-5.4-7.4-5.2-.9.9 6 9.5 14.5 18.1 11.1 11.2 14.9 14.7 23.8 21.2 11 8.2 11.7 8.7 16.5 11.2 2.5 1.3 5.2 2.9 6 3.6 3 2.5 21.4 9.6 31.9 12.3l10.8 2.9 7.8-1.9c15.9-3.7 36.1-15.7 50.2-29.6 6.4-6.2 6.7-5.9 2.4 2.6-2.2 4.2-9.4 13.7-12.6 16.5-5.1 4.4-11.4 8.3-17.9 10.9l-7.1 2.8 8-.6c20.9-1.5 44-9.6 62-22 3.8-2.5 7.4-5.2 8-5.8.7-.6 3.2-2.9 5.6-5.2 20-18.2 22-46.8 5.2-72.1l-3.5-5.4 4.1-12c2.4-6.6 4.1-12.5 3.9-13-.2-.6-4.2-2.4-8.8-3.9-4.7-1.6-9.7-3.3-11.2-3.9l-2.7-1 3.6-10.3c1.9-5.7 10.1-29.9 18.3-53.8 8.1-23.9 16.7-48.9 19-55.5 2.3-6.6 4.3-12.7 4.5-13.5.2-.8 4.5-13.4 9.5-28s11.3-33 14-41c7.3-21.5 29-85.3 35-102.5 9.9-29 10.1-29.7 9.1-38.3-.2-1.9-3.9-5.2-5.8-5.1-1 0-2.8.4-3.9.9zM412.9 309.4c-.1.3-.3 1.5-.4 2.6-.1 1.1-.3 2.4-.4 3 0 .5-1.6 1-3.3 1-4.3 0-11.9 2.4-16.9 5.2l-3.9 2.2-2.8-2.7c-5.1-4.9-7.3-2.4-2.7 3.1 1.6 1.9 2.2 3.3 1.5 3.7-2.7 1.7-10.5 17.9-9.7 20.3.1.4-1.1.9-2.8 1-5.3.6-5.1 4.1.3 4.2 1.8 0 2.2.6 2.2 2.9 0 4.1 3.3 14.4 5.8 17.9l2.1 2.9-2.9 2.8c-5.4 5.2-3.1 7.5 3 3 2.7-2 3.5-2.2 4.4-1.1 2.1 2.6 9.5 6.6 15.4 8.2 5.7 1.6 6 1.8 5.8 4.8-.2 4.4 2.8 4.3 3.2-.2.3-2.9.6-3.2 3.7-3.2 4.1 0 16.1-4.2 18.3-6.4 1.4-1.4 1.9-1.2 4.9 1.4 5.5 4.9 7.7 3.5 3.7-2.4l-2.5-3.6 3.2-4.5c1.8-2.5 4.3-7.6 5.5-11.3 2-6.2 2.3-6.7 5-6.7 4 0 3.9-2.8-.1-3.5-2.8-.5-3-.9-3.6-5.8-.4-3-2.1-8.3-3.9-11.9l-3.2-6.5 2.7-2.8c1.8-1.9 2.5-3.5 2.1-4.6-.5-1.4-1-1.3-4 1-4.1 3.1-4.8 3.2-7 .7-2.6-2.8-13.3-7.4-18.8-8-.4-.1-.8-1.5-1-3.3-.2-1.7-.9-3.3-1.5-3.6-.7-.2-1.4-.1-1.4.2zm-5.7 47.6c2.7 2.8 3 3.6 2.5 7.3-1.6 12.1-18.9 11.3-18.9-.8 0-8.8 10.1-12.7 16.4-6.5zM310 393.4c0 5-.2 5.4-2.7 6.1-4 .9-10.9 5.1-15.1 9.1-3.2 3-3.8 3.2-5.2 1.9-1.8-1.7-5-2-5-.6 0 .5 1.1 1.8 2.4 2.9 1.7 1.3 2.2 2.3 1.5 3.3-1.8 2.8-5 14.5-5.1 18.6 0 3.9-.3 4.2-3.2 4.9-7 1.5-7.4 4.4-.6 4.4 2.9 0 5 .5 5 1.1 0 2.4 5.2 11.7 8.6 15.4 3.4 3.8 3.6 4.2 2.4 7.3-1.6 4.4-.5 5.2 2.6 2l2.6-2.5 5.1 2.5c3.3 1.6 7.6 2.7 11.9 3l6.8.5 1 3.8c1.9 6.8 4.3 6.6 4.2-.5-.1-4 .1-4.5 2.6-5.1 3.9-.9 10.8-5.2 15-9.1 3.2-3 3.8-3.2 5.2-1.9 1.9 1.7 5 2 5 .5 0-.6-1.1-2-2.4-3.1-2.4-2.1-2.4-2.1-.6-5.3 2.2-3.6 4.7-13.9 4.4-17.7-.2-2.3.3-2.8 3.6-3.8 6.9-2.1 6.7-4.4-.5-4.3-3.4.1-4.5-.2-4.5-1.4 0-2.7-4.9-11.2-8.8-15.3l-3.8-4 1.8-3c2.5-3.9.4-5.5-2.7-1.9l-2.2 2.5-3.6-1.8c-4.6-2.4-14.4-4.7-17.8-4.2-2.4.3-2.8-.1-3.8-4.1-.6-2.4-1.8-4.6-2.6-5-1.2-.4-1.5.4-1.5 4.8zm12.5 19.8c8.1 7.1-.5 20.7-10 16-4.6-2.3-7.1-7.5-5.5-11.7 2.5-6.4 10.4-8.6 15.5-4.3zM427 424.4c0 1.3.4 3.6.9 4.9.9 2.2.6 2.7-2.2 3.8-1.8.8-6.3 4.4-10 8.1-5.7 5.8-7.1 6.7-8.7 5.8-2.6-1.4-4-1.2-4 .5 0 .9 1.2 2.1 2.6 2.7 1.9.9 2.4 1.7 1.9 3.2-2.1 6.8-2.6 10.8-2.2 16.7l.4 6.6-4.1 1.9c-6.1 2.8-3.7 5 3.4 3.1 2.2-.5 2.8-.1 4.9 3.8 2.3 4.3 8.7 11 12.5 13.2 1.5.8 1.6 1.4.7 3.1-.6 1.1-1.1 2.8-1.1 3.6 0 2.5 2.6 1.9 3.8-.9 1.3-2.9 1.5-2.9 7.4-1.1 2.6.7 7.8 1.2 11.9 1.1l7.4-.3 1.7 4c1 2.4 2.3 3.8 3 3.5 1.4-.5 1.5-1.5.4-6.3-.7-2.9-.4-3.3 3.6-5.7 4.9-2.9 8.2-5.8 11.9-10.5 2.4-3.1 2.7-3.2 5.2-2.1 2.2 1 3 1 4-.1.8-.9.9-1.4.1-1.7-.6-.2-1.9-1-3-1.7-1.6-1.2-1.7-1.8-.5-5.7 1.2-4 1.8-15.6.9-18.7-.1-.6 1.5-2.2 3.6-3.5 2.1-1.2 3.8-2.7 3.7-3.2-.2-1.1-4.7-1.1-7.2-.1-1.2.5-2.3-.4-4.2-3.6-2.7-4.6-8.4-10.9-12.2-13.4-2.1-1.4-2.2-1.7-.9-4.2.8-1.6 1-3 .4-3.6-1.2-1.2-4 1.1-4 3.1 0 1.5-.8 1.5-7-.2-1.4-.4-6.2-.8-10.8-.9l-8.2-.1-1.8-3.4c-2.1-4.3-4.2-5.2-4.2-1.7zm6 39.1c1.6.8 3.4 2.4 4 3.4 4.4 8.2-5.8 18.1-13.5 13.1-5.1-3.3-6.2-8.7-2.9-13.8 2.7-4.1 7.6-5.2 12.4-2.7z"/></svg>