<svg xmlns="http://www.w3.org/2000/svg" xmlns:svgjs="http://svgjs.com/svgjs" xmlns:xlink="http://www.w3.org/1999/xlink" width="398.5" height="398.5"><defs><path id="SvgjsPath1003" fill="#000" d="M307.2 24v25.6l-32 3.2c-36.8 4.8-97.6 30.4-120 51.2l-14.4 12.8L120 97.6c-40-38.4-62.4-22.4-27.2 17.6l24 25.6-12.8 14.4c-20.8 22.4-46.4 83.2-51.2 120l-3.2 32H24c-19.2 0-24 1.6-24 12.8 0 11.2 4.8 12.8 24 12.8h25.6l3.2 32c4.8 36.8 30.4 97.6 51.2 120l12.8 14.4L97.6 520c-38.4 38.4-17.6 60.8 20.8 24l20.8-19.2 33.6 22.4c35.2 24 86.4 41.6 116.8 41.6 16 0 17.6 1.6 17.6 25.6 0 20.8 1.6 25.6 12.8 25.6 11.2 0 12.8-4.8 12.8-25.6 0-24 1.6-25.6 17.6-25.6 30.4 0 81.6-17.6 116.8-41.6l33.6-22.4 20.8 19.2c38.4 36.8 59.2 14.4 20.8-24l-19.2-20.8 12.8-14.4c20.8-22.4 46.4-83.2 51.2-120l3.2-32H616c19.2 0 24-1.6 24-12.8 0-11.2-4.8-12.8-24-12.8h-25.6l-3.2-32c-4.8-36.8-30.4-97.6-51.2-120l-12.8-14.4 19.2-20.8C580.8 80 560 59.2 520 97.6l-20.8 19.2-14.4-12.8c-22.4-20.8-83.2-46.4-120-51.2l-32-3.2V24c0-19.2-1.6-24-12.8-24-11.2 0-12.8 4.8-12.8 24zm-64 148.8c89.6 3.2 96 137.6 0 140.8-94.4-3.2-92.8-137.6 0-140.8z"/></defs><svg xmlns="http://www.w3.org/2000/svg" id="SvgjsSvg1014" width="398.5" height="398.5" version="1.1" xml:space="preserve"><g id="SvgjsG1011" transform="translate(-34.8 -31.7)"><g id="SvgjsG1010"><path id="SvgjsPath1009" fill="#000" stroke-width=".7" d="M292.2 32c-3.7-1.3-8.5 2.7-10.6 8.8l-87.7 257.4-18.9-6.5-7 20.7c-14.2 5-26.1 17.5-39.2 28.5-1.6 1.4-13.8 7.5-14.9 8.7 26.9-.2 60.5-13.2 60.5-13.2-24.8 20.7-49 21-68.2 15.2-27.4 2.2-67-6.5-47.1 16.1 25.8 29.4 52.3 42.7 76.5 46.5 29.4-4.7 49.8-29.7 49.8-29.7a46.3 46.3 0 01-33.8 31c40.7-.3 71.7-26 76.8-40.7a46.9 46.9 0 00-9.4-45.4l6.9-20.3-18.3-6.2 87.7-257.4c2-6.2.7-12.2-3-13.5zM53.8 359.2l82.4 14.4c-36.7 30.5-82.4-14.4-82.4-14.4z"/></g><g id="SvgjsG1008" fill="#000" fill-opacity="1" transform="scale(.1083) rotate(-86.6 3133.2 6)"><path id="SvgjsPath1006" d="M307.2 24v25.6l-32 3.2c-36.8 4.8-97.6 30.4-120 51.2l-14.4 12.8L120 97.6c-40-38.4-62.4-22.4-27.2 17.6l24 25.6-12.8 14.4c-20.8 22.4-46.4 83.2-51.2 120l-3.2 32H24c-19.2 0-24 1.6-24 12.8 0 11.2 4.8 12.8 24 12.8h25.6l3.2 32c4.8 36.8 30.4 97.6 51.2 120l12.8 14.4L97.6 520c-38.4 38.4-17.6 60.8 20.8 24l20.8-19.2 33.6 22.4c35.2 24 86.4 41.6 116.8 41.6 16 0 17.6 1.6 17.6 25.6 0 20.8 1.6 25.6 12.8 25.6 11.2 0 12.8-4.8 12.8-25.6 0-24 1.6-25.6 17.6-25.6 30.4 0 81.6-17.6 116.8-41.6l33.6-22.4 20.8 19.2c38.4 36.8 59.2 14.4 20.8-24l-19.2-20.8 12.8-14.4c20.8-22.4 46.4-83.2 51.2-120l3.2-32H616c19.2 0 24-1.6 24-12.8 0-11.2-4.8-12.8-24-12.8h-25.6l-3.2-32c-4.8-36.8-30.4-97.6-51.2-120l-12.8-14.4 19.2-20.8C580.8 80 560 59.2 520 97.6l-20.8 19.2-14.4-12.8c-22.4-20.8-83.2-46.4-120-51.2l-32-3.2V24c0-19.2-1.6-24-12.8-24-11.2 0-12.8 4.8-12.8 24zm-64 148.8c89.6 3.2 96 137.6 0 140.8-94.4-3.2-92.8-137.6 0-140.8z"/></g><g id="SvgjsG1005" transform="matrix(.0488 -.0967 .0967 .0488 332.8 410.6)"><use xlink:href="#SvgjsPath1003"/></g><g id="SvgjsG1002" transform="scale(.1083) rotate(36 -3309 5396)"><use id="SvgjsPath1000" xlink:href="#SvgjsPath1003"/></g></g></svg></svg>