<?xml version="1.0" standalone="no"?>
<!DOCTYPE svg PUBLIC "-//W3C//DTD SVG 20010904//EN"
 "http://www.w3.org/TR/2001/REC-SVG-20010904/DTD/svg10.dtd">
<svg version="1.0" xmlns="http://www.w3.org/2000/svg"
 width="512.000000pt" height="512.000000pt" viewBox="0 0 512.000000 512.000000"
 preserveAspectRatio="xMidYMid meet">
<metadata>
Created by potrace 1.14, written by Peter Selinger 2001-2017
</metadata>
<g transform="translate(0.000000,512.000000) scale(0.100000,-0.100000)"
fill="#000000" stroke="none">
<path d="M3254 5110 c-53 -21 -62 -43 -219 -505 -26 -77 -103 -304 -172 -505
-68 -201 -140 -410 -158 -465 -19 -55 -84 -246 -145 -425 -61 -179 -128 -377
-150 -440 -21 -63 -100 -295 -175 -515 -75 -220 -148 -435 -162 -477 -15 -43
-29 -78 -32 -78 -3 0 -58 18 -121 39 -82 28 -117 36 -121 28 -4 -7 -24 -65
-45 -130 l-39 -119 -70 -34 c-92 -44 -225 -145 -373 -282 -42 -38 -170 -122
-187 -122 -4 0 -19 -10 -33 -21 l-27 -22 94 7 c152 11 437 75 619 140 56 20
47 7 -36 -47 -96 -63 -241 -132 -272 -130 -3 0 -15 -3 -28 -8 -80 -31 -284
-35 -397 -9 -70 16 -119 18 -380 17 -265 -2 -304 -4 -332 -20 -36 -19 -60 -54
-46 -68 4 -4 49 -15 98 -24 50 -8 102 -17 115 -20 13 -3 42 -7 65 -10 22 -3
47 -8 55 -10 8 -2 29 -6 45 -9 17 -3 86 -15 155 -27 69 -12 134 -23 145 -24
11 -2 34 -6 50 -9 17 -3 89 -16 160 -27 180 -30 178 -29 119 -67 -114 -73
-216 -102 -344 -97 -82 3 -129 12 -205 37 -126 43 -264 120 -379 212 -38 31
-71 54 -74 52 -9 -9 60 -95 145 -181 111 -112 149 -147 238 -212 110 -82 117
-87 165 -112 25 -13 52 -29 60 -36 30 -25 214 -96 319 -123 l108 -29 78 19
c159 37 361 157 502 296 64 62 67 59 24 -26 -22 -42 -94 -137 -126 -165 -51
-44 -114 -83 -179 -109 l-71 -28 80 6 c209 15 440 96 620 220 38 25 74 52 80
58 7 6 32 29 56 52 200 182 220 468 52 721 l-35 54 41 120 c24 66 41 125 39
130 -2 6 -42 24 -88 39 -47 16 -97 33 -112 39 l-27 10 36 103 c19 57 101 299
183 538 81 239 167 489 190 555 23 66 43 127 45 135 2 8 45 134 95 280 50 146
113 330 140 410 73 215 290 853 350 1025 99 290 101 297 91 383 -2 19 -39 52
-58 51 -10 0 -28 -4 -39 -9z"/>
<path d="M4129 2026 c-1 -3 -3 -15 -4 -26 -1 -11 -3 -24 -4 -30 0 -5 -16 -10
-33 -10 -43 0 -119 -24 -169 -52 l-39 -22 -28 27 c-51 49 -73 24 -27 -31 16
-19 22 -33 15 -37 -27 -17 -105 -179 -97 -203 1 -4 -11 -9 -28 -10 -53 -6 -51
-41 3 -42 18 0 22 -6 22 -29 0 -41 33 -144 58 -179 l21 -29 -29 -28 c-54 -52
-31 -75 30 -30 27 20 35 22 44 11 21 -26 95 -66 154 -82 57 -16 60 -18 58 -48
-2 -44 28 -43 32 2 3 29 6 32 37 32 41 0 161 42 183 64 14 14 19 12 49 -14 55
-49 77 -35 37 24 l-25 36 32 45 c18 25 43 76 55 113 20 62 23 67 50 67 40 0
39 28 -1 35 -28 5 -30 9 -36 58 -4 30 -21 83 -39 119 l-32 65 27 28 c18 19 25
35 21 46 -5 14 -10 13 -40 -10 -41 -31 -48 -32 -70 -7 -26 28 -133 74 -188 80
-4 1 -8 15 -10 33 -2 17 -9 33 -15 36 -7 2 -14 1 -14 -2z m-57 -476 c27 -28
30 -36 25 -73 -16 -121 -189 -113 -189 8 0 88 101 127 164 65z"/>
<path d="M3100 1186 c0 -50 -2 -54 -27 -61 -40 -9 -109 -51 -151 -91 -32 -30
-38 -32 -52 -19 -18 17 -50 20 -50 6 0 -5 11 -18 24 -29 17 -13 22 -23 15 -33
-18 -28 -50 -145 -51 -186 0 -39 -3 -42 -32 -49 -70 -15 -74 -44 -6 -44 29 0
50 -5 50 -11 0 -24 52 -117 86 -154 34 -38 36 -42 24 -73 -16 -44 -5 -52 26
-20 l26 25 51 -25 c33 -16 76 -27 119 -30 l68 -5 10 -38 c19 -68 43 -66 42 5
-1 40 1 45 26 51 39 9 108 52 150 91 32 30 38 32 52 19 19 -17 50 -20 50 -5 0
6 -11 20 -24 31 -24 21 -24 21 -6 53 22 36 47 139 44 177 -2 23 3 28 36 38 69
21 67 44 -5 43 -34 -1 -45 2 -45 14 0 27 -49 112 -88 153 l-38 40 18 30 c25
39 4 55 -27 19 l-22 -25 -36 18 c-46 24 -144 47 -178 42 -24 -3 -28 1 -38 41
-6 24 -18 46 -26 50 -12 4 -15 -4 -15 -48z m125 -198 c81 -71 -5 -207 -100
-160 -46 23 -71 75 -55 117 25 64 104 86 155 43z"/>
<path d="M4270 876 c0 -13 4 -36 9 -49 9 -22 6 -27 -22 -38 -18 -8 -63 -44
-100 -81 -57 -58 -71 -67 -87 -58 -26 14 -40 12 -40 -5 0 -9 12 -21 26 -27 19
-9 24 -17 19 -32 -21 -68 -26 -108 -22 -167 l4 -66 -41 -19 c-61 -28 -37 -50
34 -31 22 5 28 1 49 -38 23 -43 87 -110 125 -132 15 -8 16 -14 7 -31 -6 -11
-11 -28 -11 -36 0 -25 26 -19 38 9 13 29 15 29 74 11 26 -7 78 -12 119 -11
l74 3 17 -40 c10 -24 23 -38 30 -35 14 5 15 15 4 63 -7 29 -4 33 36 57 49 29
82 58 119 105 24 31 27 32 52 21 22 -10 30 -10 40 1 8 9 9 14 1 17 -6 2 -19
10 -30 17 -16 12 -17 18 -5 57 12 40 18 156 9 187 -1 6 15 22 36 35 21 12 38
27 37 32 -2 11 -47 11 -72 1 -12 -5 -23 4 -42 36 -27 46 -84 109 -122 134 -21
14 -22 17 -9 42 8 16 10 30 4 36 -12 12 -40 -11 -40 -31 0 -15 -8 -15 -70 2
-14 4 -62 8 -108 9 l-82 1 -18 34 c-21 43 -42 52 -42 17z m60 -391 c16 -8 34
-24 40 -34 44 -82 -58 -181 -135 -131 -51 33 -62 87 -29 138 27 41 76 52 124
27z"/>
</g>
</svg>
